<svg width="114" height="189" viewBox="0 0 114 189" fill="none" xmlns="http://www.w3.org/2000/svg">
<g id="&#240;&#159;&#151;&#130; ref &#194;&#183; India state vectors (source)">
<g id="chhattisgarh">
<mask id="path-1-inside-1_0_1" fill="white">
<path d="M112.984 35.0114C112.984 36.9836 112.276 38.3783 111.306 38.9448C110.315 39.5005 109.759 39.2499 109.759 40.492C109.759 41.7342 111.154 42.3117 108.767 43.009C106.381 43.7173 104.627 43.5647 103.21 44.5345C101.794 45.526 101.641 46.365 102.48 47.3892C102.72 47.6943 103.014 47.8577 103.341 47.9667C103.537 48.032 103.734 48.0756 103.941 48.1192C103.635 50.0042 102.949 52.6519 101.445 52.8262C99.1027 53.1095 97.5119 54.2209 96.6729 54.9727C95.834 55.7028 93.6003 56.0079 93.0228 56.4546C92.4671 56.9231 89.8412 58.8844 90.593 59.7125C91.3231 60.5514 91.323 61.6628 90.9526 62.2294C90.593 62.7851 89.0894 62.9595 90.0265 64.2888C90.9526 65.5963 91.7044 65.4001 91.7044 66.7185C91.7044 68.0369 90.2661 69.1483 89.7322 69.4207C89.1983 69.704 87.6947 71.6544 87.6076 72.6895C87.5204 73.7246 87.978 74.0842 88.0761 74.727C88.1632 75.3917 88.1632 75.1956 86.9538 75.9474C85.7335 76.6774 84.8073 77.6253 85.0034 78.2682C85.1778 78.9111 86.1148 80.1314 86.3109 80.7852C86.5071 81.428 86.5942 83.215 86.0276 83.215C85.461 83.215 84.5458 81.9946 83.2383 82.4631C81.9308 82.9317 82.1378 82.8227 82.0397 84.6096C81.9308 86.3857 82.5954 87.9765 81.6584 88.4341C80.7104 88.9026 80.9066 89.9377 79.4247 90.0249C77.9211 90.1121 76.9078 89.7416 76.047 89.1859C75.208 88.6302 75.0119 87.399 72.8654 87.9874C70.7189 88.5431 69.6838 89.4692 69.3242 89.4692C68.9646 89.4692 67.6462 89.2731 67.1777 89.2731C66.7092 89.2731 64.6608 89.9377 64.6608 91.3324C64.6608 92.7271 65.2165 94.3179 64.1487 95.2658C63.0809 96.192 61.49 95.7126 61.2939 96.8566C61.0978 97.9898 60.869 98.916 60.4113 98.916C59.9537 98.916 59.3109 97.4123 58.2867 98.2513C57.2515 99.0903 56.892 98.6436 57.1752 100.866C57.4585 103.1 58.0143 105.53 58.0143 105.53C58.0143 105.53 57.8399 106.75 58.9622 107.96C60.0736 109.158 60.5748 110.749 60.4222 111.032C60.2697 111.316 59.3218 112.983 59.714 114.018C60.1063 115.053 60.1063 117.199 59.823 117.755C59.5397 118.311 58.875 120.937 59.5397 121.296C60.1825 121.667 58.7879 121.939 61.49 122.222C64.1922 122.506 65.783 122.974 66.4259 122.778C67.0905 122.582 68.3763 122.582 68.7685 123.661C69.1281 124.75 69.1281 127.071 68.4852 127.736C67.8206 128.379 67.0905 129.043 66.2516 129.13C65.4126 129.218 65.0312 126.984 64.1487 126.701C63.2661 126.417 62.1547 125.774 61.0106 126.232C59.8883 126.701 58.8641 127.452 58.3956 127.452C57.9271 127.452 56.892 126.417 56.5324 125.219C56.1728 123.998 57.4586 123.432 55.6063 122.985C53.7431 122.517 51.9561 122.985 51.4004 123.072C50.8447 123.159 48.9706 121.765 48.9706 121.765C48.9706 121.765 47.8484 120.566 47.1074 120.566C46.3665 120.566 44.2091 121.209 44.0348 122.713C43.8604 124.195 42.6401 125.328 44.8738 126.537C47.1074 127.757 47.2164 127.202 48.3278 127.845C49.4391 128.487 50.3653 129.435 50.3653 130.634C50.3653 131.833 49.7225 132.78 49.6135 133.816C49.5263 134.851 47.2709 135.962 49.7224 137.825C52.1522 139.688 53.3726 139.503 53.5469 139.776C53.743 140.059 54.2987 141.552 54.0154 142.009C53.7321 142.456 52.9041 144.156 53.1765 146.945C53.4598 149.735 54.484 150.791 54.8544 151.543C55.214 152.273 56.1619 152.742 55.323 153.973C54.484 155.193 54.375 155.564 52.8932 157.046C51.4113 158.549 51.858 160.587 50.3762 161.252C48.8944 161.916 46.6389 162.199 46.0832 163.311C45.7127 164.052 45.6183 164.731 45.7999 165.348C46.0832 166.275 47.9464 165.991 45.7999 167.865C43.6534 169.739 41.0275 172.354 39.2515 172.997C37.4755 173.662 36.0699 172.823 35.8847 174.501C35.7103 176.179 35.9936 177.683 35.4379 179.72C34.8822 181.779 33.76 182.978 33.5747 183.926C33.3786 184.874 33.4875 186.606 33.2914 188.066C32.3217 188.001 31.3193 187.914 30.3931 187.848C30.1752 187.827 29.9682 187.805 29.772 187.805C29.6195 187.805 29.4778 187.783 29.3253 187.783C29.151 187.783 28.9984 187.761 28.8568 187.761L28.3447 187.761C26.4597 187.761 22.9512 187.631 22.9512 188.132C22.9512 188.306 22.3955 188.513 21.6873 188.709C21.1534 188.197 20.7175 187.696 20.6522 187.424C20.3689 186.519 20.6522 185.604 20.6522 185.037C20.6522 184.471 20.2926 183.512 20.0964 183C19.8785 182.509 18.6146 180.962 18.6146 179.993C18.6146 179.578 18.571 179.132 18.5274 178.75C18.4403 178.195 18.3313 177.759 18.2006 177.672C17.9827 177.497 16.0977 177.269 15.749 177.476C15.4003 177.693 14.6376 177.759 14.2236 177.476C13.7986 177.192 13.4499 176.016 13.6679 174.752C13.8858 173.488 14.2236 173.488 14.2236 173.27C14.2236 173.052 13.7333 171.232 13.5153 170.393C13.3192 169.554 11.347 168.65 10.0831 167.604C8.93903 166.656 8.60129 165.523 8.33978 164.858C8.31799 164.793 8.2962 164.727 8.27441 164.662C7.96933 164.019 5.26713 163.888 4.62427 164.662C4.00321 165.436 3.51289 164.727 2.10732 164.662C0.690851 164.575 1.39909 163.801 1.39909 163.049C1.39909 162.298 0.135162 160.26 0.135162 160.26C0.287705 159.813 0.560104 159.356 1.19207 159.149C2.18359 158.778 3.07704 158.724 3.14241 158.222C3.22958 157.732 2.79376 156.893 2.10732 156.337C1.39909 155.782 0.0697585 154.856 0.00438309 154.3C-0.0609924 153.744 0.625458 150.933 0.625458 150.933C0.625458 150.933 1.80222 147.566 3.21869 145.474C4.61337 143.371 7.40272 139.939 8.45962 140.495C9.51653 141.05 8.74292 142.314 9.8543 143.153C10.9657 143.992 11.9572 144.123 12.7308 143.927C13.5044 143.709 15.3894 144.058 15.5202 143.84C15.6509 143.622 16.3592 142.314 15.7817 141.672C15.226 141.029 14.6049 140.408 14.6049 140.408C14.6049 140.408 15.1606 139.699 15.5965 139.699C16.0323 139.699 17.1219 138.86 17.1219 138.664C17.1219 138.468 16.5662 137.204 16.3483 137.052C16.1521 136.899 15.1061 136.147 14.2454 135.94C13.4064 135.722 12.0771 135.526 11.7284 135.319C11.3797 135.112 10.9548 134.764 10.8241 134.328C10.6715 133.914 9.71267 131.32 9.42938 130.895C9.14608 130.46 7.81679 129.37 7.39185 129.37C6.96691 129.37 6.83614 130.144 5.77924 130.144C4.72233 130.144 3.17511 130.427 3.05526 129.795C2.90272 129.174 3.7635 128.466 4.31919 128.182C4.87488 127.899 5.09281 127.213 5.00564 126.94C4.94026 126.657 4.5153 126.297 4.10126 126.232C3.67632 126.167 3.04435 125.458 3.04435 125.055C3.04435 124.652 2.8918 124.064 3.75258 124.151C4.59157 124.216 7.31554 127.311 7.59884 124.619C7.88213 121.961 8.30709 119.509 6.69449 119.444C5.0819 119.379 4.12305 120 3.62184 119.444C3.13152 118.888 2.71748 117.897 2.84824 117.058C3.00078 116.197 3.33857 114.824 4.66787 114.606C5.99717 114.388 5.5722 114.671 7.05404 114.268C8.5141 113.843 9.84341 113.277 9.93058 112.1C10.0177 110.618 10.5299 107.611 9.09161 106.565C8.23083 105.922 5.84461 107.426 5.57221 106.434C5.22355 105.17 3.95963 103.841 5.92089 103.427C7.87126 103.002 7.95843 103.558 8.64487 102.937C9.3531 102.316 9.35308 99.7767 9.20054 99.0685C9.048 98.3821 8.57947 96.3445 8.07826 96.192C7.58795 96.0395 6.04074 96.1266 5.84461 95.6363C5.62669 95.146 4.94027 92.9777 4.94027 91.9862C4.94027 90.9946 3.94872 89.5346 5.49594 88.554C7.02136 87.5624 8.37246 87.5624 9.27682 87.29C10.1812 87.0067 10.6061 87.0503 11.1618 85.8518C11.2708 85.6338 11.3797 85.405 11.4887 85.1653C11.5976 84.9038 11.7066 84.6532 11.8156 84.3917C12.1316 83.6181 12.3713 83.0406 12.3713 83.0406C12.3713 83.0406 13.7659 80.7198 13.2974 78.4861C12.8071 76.2525 11.8156 74.2803 11.9681 73.158C12.0989 72.0466 12.0335 70.6411 13.2974 71.3384C14.5395 72.0467 15.1279 73.267 15.749 71.1423C16.3701 69.0176 16.2393 67.9607 16.174 67.3396C16.1086 66.7185 15.6836 65.5962 16.0214 64.3323C16.3701 63.0684 16.7296 61.1071 17.5686 61.1071C18.4076 61.1071 20.1618 62.6326 20.8592 61.1071C21.5674 59.5599 20.8592 58.5902 21.9706 57.3262C23.0819 56.0623 24.1388 56.7052 24.4221 55.4412C24.7054 54.1773 24.3568 52.9897 24.3568 52.3468C24.3568 51.7039 24.4221 50.5163 25.065 50.3965C25.6861 50.2439 26.3071 50.865 27.2333 50.9521C28.1377 51.0175 29.8265 49.6882 29.8265 49.6882C29.8265 49.6882 30.1316 48.4243 30.8181 49.6882C31.5045 50.9521 32.703 51.3662 33.6946 49.9715C34.6861 48.5768 34.8713 47.4654 36.5711 46.5393C38.2491 45.6131 38.4561 43.6628 39.1643 43.4666C39.8507 43.2487 40.6244 43.8044 41.1147 42.9763C41.5832 42.1374 41.7358 40.4594 41.6704 39.6858C41.5832 38.9121 40.8314 38.2257 42.0735 37.6482C43.3375 37.0925 44.7321 37.2233 45.0808 36.3189C45.4295 35.4146 44.7321 33.5949 44.7321 33.0392C44.7321 32.4835 43.8931 30.5877 45.789 30.653C47.674 30.7184 51.1825 30.7184 51.3895 29.8141C51.5856 28.9097 50.8992 28.4848 51.3024 27.7112C51.7273 26.9593 52.5663 25.9678 52.3484 25.4775C52.1305 25.0089 50.8229 23.9521 49.8968 23.7341C48.9924 23.538 46.737 23.1785 46.53 22.6772C46.3338 22.2087 45.9089 18.0574 44.7866 18.4932C43.6752 18.8964 42.8362 20.1058 42.335 19.7571C41.8665 19.4084 41.0929 18.4932 40.8096 18.4714C40.5263 18.4278 38.3036 19.5501 38.3036 19.5501C38.3036 19.5501 38.6522 20.3891 37.2466 19.6373C35.852 18.8637 35.3616 17.0985 35.5687 16.4121C35.7866 15.7256 37.2466 15.7257 37.8023 14.3746C38.358 13.0453 39.4803 13.4702 38.576 11.8576C37.6498 10.245 36.6256 8.29462 36.6256 7.65176C36.6256 7.0089 38.4561 6.03917 38.7285 6.25709C39.0118 6.45321 39.6546 7.52102 39.72 8.20747C39.7854 8.89391 39.5021 9.88541 40.4936 10.0924C41.4851 10.2886 42.6619 9.78736 43.0868 9.44958C43.5009 9.10091 42.8036 8.39268 44.4161 8.39268C46.0287 8.39268 46.737 8.65419 47.1401 9.36243C47.5651 10.0707 49.8641 10.3322 50.4307 10.2668C50.9864 10.2014 52.2612 8.87211 52.8169 9.09003C53.3726 9.30795 51.1389 10.5501 54.9852 10.7026C58.8532 10.8334 61.2939 9.59124 61.2939 9.59124C61.2939 9.59124 62.7104 10.1469 64.214 9.03553C65.6959 7.92415 68.1693 5.75588 68.1693 5.75588C68.1693 5.75588 68.8339 5.40719 69.455 5.28734C69.869 5.20017 70.2286 5.1784 70.4029 5.41811C70.7516 5.86485 71.6668 7.20501 72.2879 7.80429C72.4187 7.93504 72.5276 8.02223 72.6366 8.06581C73.1922 8.34911 76.4174 9.32972 77.6814 8.28371C78.9453 7.2377 79.7843 7.0198 80.34 6.11544C80.8957 5.21108 81.4514 4.28493 81.7346 2.95563C81.9744 1.84424 81.6257 0.874512 82.0942 0.100902C83.2056 -0.117016 84.633 -0.0516555 86.0059 1.00525C88.9478 3.23891 87.6838 5.34183 89.5034 7.17234C89.6124 7.2813 89.7432 7.39026 89.8521 7.47743C90.0047 7.60818 90.179 7.69533 90.3206 7.7716C90.5168 7.85877 90.702 7.94595 90.8981 7.98954C91.4756 8.16387 92.0531 8.18565 92.6197 8.28371C92.7068 8.28371 92.794 8.32729 92.8812 8.34909C92.9683 8.37088 93.0555 8.39269 93.1427 8.43627C93.208 8.43627 93.2952 8.47984 93.3606 8.52343C93.4696 8.56701 93.5567 8.61061 93.6657 8.67598C93.7311 8.71957 93.7964 8.74137 93.84 8.78495C93.8618 8.78495 93.8836 8.82851 93.9054 8.82851C93.9926 8.89388 94.0797 8.95929 94.1451 9.02466L94.2976 9.17719C94.2976 9.17719 94.3848 9.28616 94.4284 9.32975C94.5591 9.50408 94.6899 9.7111 94.8097 9.9726C96.0737 12.6312 94.5482 14.4617 95.8013 15.3007C97.0434 16.1397 99.7347 16.2922 100.29 15.3007C100.846 14.3092 103.548 14.1457 103.254 15.9871C102.96 17.8394 101.838 18.2426 101.413 19.7898C100.988 21.337 102.404 23.2874 102.404 23.2874C102.404 23.2874 103.091 22.7317 103.951 24.1482C104.79 25.5428 103.799 27.6458 103.951 28.8879C104.104 30.1518 105.771 33.2245 106.185 33.5078C106.588 33.7911 109.127 33.6603 109.683 33.5078C110.238 33.377 113.049 33.1264 113.049 35.055L112.919 35.0986L112.984 35.0114Z"/>
</mask>
<path d="M112.984 35.0114C112.984 36.9836 112.276 38.3783 111.306 38.9448C110.315 39.5005 109.759 39.2499 109.759 40.492C109.759 41.7342 111.154 42.3117 108.767 43.009C106.381 43.7173 104.627 43.5647 103.21 44.5345C101.794 45.526 101.641 46.365 102.48 47.3892C102.72 47.6943 103.014 47.8577 103.341 47.9667C103.537 48.032 103.734 48.0756 103.941 48.1192C103.635 50.0042 102.949 52.6519 101.445 52.8262C99.1027 53.1095 97.5119 54.2209 96.6729 54.9727C95.834 55.7028 93.6003 56.0079 93.0228 56.4546C92.4671 56.9231 89.8412 58.8844 90.593 59.7125C91.3231 60.5514 91.323 61.6628 90.9526 62.2294C90.593 62.7851 89.0894 62.9595 90.0265 64.2888C90.9526 65.5963 91.7044 65.4001 91.7044 66.7185C91.7044 68.0369 90.2661 69.1483 89.7322 69.4207C89.1983 69.704 87.6947 71.6544 87.6076 72.6895C87.5204 73.7246 87.978 74.0842 88.0761 74.727C88.1632 75.3917 88.1632 75.1956 86.9538 75.9474C85.7335 76.6774 84.8073 77.6253 85.0034 78.2682C85.1778 78.9111 86.1148 80.1314 86.3109 80.7852C86.5071 81.428 86.5942 83.215 86.0276 83.215C85.461 83.215 84.5458 81.9946 83.2383 82.4631C81.9308 82.9317 82.1378 82.8227 82.0397 84.6096C81.9308 86.3857 82.5954 87.9765 81.6584 88.4341C80.7104 88.9026 80.9066 89.9377 79.4247 90.0249C77.9211 90.1121 76.9078 89.7416 76.047 89.1859C75.208 88.6302 75.0119 87.399 72.8654 87.9874C70.7189 88.5431 69.6838 89.4692 69.3242 89.4692C68.9646 89.4692 67.6462 89.2731 67.1777 89.2731C66.7092 89.2731 64.6608 89.9377 64.6608 91.3324C64.6608 92.7271 65.2165 94.3179 64.1487 95.2658C63.0809 96.192 61.49 95.7126 61.2939 96.8566C61.0978 97.9898 60.869 98.916 60.4113 98.916C59.9537 98.916 59.3109 97.4123 58.2867 98.2513C57.2515 99.0903 56.892 98.6436 57.1752 100.866C57.4585 103.1 58.0143 105.53 58.0143 105.53C58.0143 105.53 57.8399 106.75 58.9622 107.96C60.0736 109.158 60.5748 110.749 60.4222 111.032C60.2697 111.316 59.3218 112.983 59.714 114.018C60.1063 115.053 60.1063 117.199 59.823 117.755C59.5397 118.311 58.875 120.937 59.5397 121.296C60.1825 121.667 58.7879 121.939 61.49 122.222C64.1922 122.506 65.783 122.974 66.4259 122.778C67.0905 122.582 68.3763 122.582 68.7685 123.661C69.1281 124.75 69.1281 127.071 68.4852 127.736C67.8206 128.379 67.0905 129.043 66.2516 129.13C65.4126 129.218 65.0312 126.984 64.1487 126.701C63.2661 126.417 62.1547 125.774 61.0106 126.232C59.8883 126.701 58.8641 127.452 58.3956 127.452C57.9271 127.452 56.892 126.417 56.5324 125.219C56.1728 123.998 57.4586 123.432 55.6063 122.985C53.7431 122.517 51.9561 122.985 51.4004 123.072C50.8447 123.159 48.9706 121.765 48.9706 121.765C48.9706 121.765 47.8484 120.566 47.1074 120.566C46.3665 120.566 44.2091 121.209 44.0348 122.713C43.8604 124.195 42.6401 125.328 44.8738 126.537C47.1074 127.757 47.2164 127.202 48.3278 127.845C49.4391 128.487 50.3653 129.435 50.3653 130.634C50.3653 131.833 49.7225 132.78 49.6135 133.816C49.5263 134.851 47.2709 135.962 49.7224 137.825C52.1522 139.688 53.3726 139.503 53.5469 139.776C53.743 140.059 54.2987 141.552 54.0154 142.009C53.7321 142.456 52.9041 144.156 53.1765 146.945C53.4598 149.735 54.484 150.791 54.8544 151.543C55.214 152.273 56.1619 152.742 55.323 153.973C54.484 155.193 54.375 155.564 52.8932 157.046C51.4113 158.549 51.858 160.587 50.3762 161.252C48.8944 161.916 46.6389 162.199 46.0832 163.311C45.7127 164.052 45.6183 164.731 45.7999 165.348C46.0832 166.275 47.9464 165.991 45.7999 167.865C43.6534 169.739 41.0275 172.354 39.2515 172.997C37.4755 173.662 36.0699 172.823 35.8847 174.501C35.7103 176.179 35.9936 177.683 35.4379 179.72C34.8822 181.779 33.76 182.978 33.5747 183.926C33.3786 184.874 33.4875 186.606 33.2914 188.066C32.3217 188.001 31.3193 187.914 30.3931 187.848C30.1752 187.827 29.9682 187.805 29.772 187.805C29.6195 187.805 29.4778 187.783 29.3253 187.783C29.151 187.783 28.9984 187.761 28.8568 187.761L28.3447 187.761C26.4597 187.761 22.9512 187.631 22.9512 188.132C22.9512 188.306 22.3955 188.513 21.6873 188.709C21.1534 188.197 20.7175 187.696 20.6522 187.424C20.3689 186.519 20.6522 185.604 20.6522 185.037C20.6522 184.471 20.2926 183.512 20.0964 183C19.8785 182.509 18.6146 180.962 18.6146 179.993C18.6146 179.578 18.571 179.132 18.5274 178.75C18.4403 178.195 18.3313 177.759 18.2006 177.672C17.9827 177.497 16.0977 177.269 15.749 177.476C15.4003 177.693 14.6376 177.759 14.2236 177.476C13.7986 177.192 13.4499 176.016 13.6679 174.752C13.8858 173.488 14.2236 173.488 14.2236 173.27C14.2236 173.052 13.7333 171.232 13.5153 170.393C13.3192 169.554 11.347 168.65 10.0831 167.604C8.93903 166.656 8.60129 165.523 8.33978 164.858C8.31799 164.793 8.2962 164.727 8.27441 164.662C7.96933 164.019 5.26713 163.888 4.62427 164.662C4.00321 165.436 3.51289 164.727 2.10732 164.662C0.690851 164.575 1.39909 163.801 1.39909 163.049C1.39909 162.298 0.135162 160.26 0.135162 160.26C0.287705 159.813 0.560104 159.356 1.19207 159.149C2.18359 158.778 3.07704 158.724 3.14241 158.222C3.22958 157.732 2.79376 156.893 2.10732 156.337C1.39909 155.782 0.0697585 154.856 0.00438309 154.3C-0.0609924 153.744 0.625458 150.933 0.625458 150.933C0.625458 150.933 1.80222 147.566 3.21869 145.474C4.61337 143.371 7.40272 139.939 8.45962 140.495C9.51653 141.05 8.74292 142.314 9.8543 143.153C10.9657 143.992 11.9572 144.123 12.7308 143.927C13.5044 143.709 15.3894 144.058 15.5202 143.84C15.6509 143.622 16.3592 142.314 15.7817 141.672C15.226 141.029 14.6049 140.408 14.6049 140.408C14.6049 140.408 15.1606 139.699 15.5965 139.699C16.0323 139.699 17.1219 138.86 17.1219 138.664C17.1219 138.468 16.5662 137.204 16.3483 137.052C16.1521 136.899 15.1061 136.147 14.2454 135.94C13.4064 135.722 12.0771 135.526 11.7284 135.319C11.3797 135.112 10.9548 134.764 10.8241 134.328C10.6715 133.914 9.71267 131.32 9.42938 130.895C9.14608 130.46 7.81679 129.37 7.39185 129.37C6.96691 129.37 6.83614 130.144 5.77924 130.144C4.72233 130.144 3.17511 130.427 3.05526 129.795C2.90272 129.174 3.7635 128.466 4.31919 128.182C4.87488 127.899 5.09281 127.213 5.00564 126.94C4.94026 126.657 4.5153 126.297 4.10126 126.232C3.67632 126.167 3.04435 125.458 3.04435 125.055C3.04435 124.652 2.8918 124.064 3.75258 124.151C4.59157 124.216 7.31554 127.311 7.59884 124.619C7.88213 121.961 8.30709 119.509 6.69449 119.444C5.0819 119.379 4.12305 120 3.62184 119.444C3.13152 118.888 2.71748 117.897 2.84824 117.058C3.00078 116.197 3.33857 114.824 4.66787 114.606C5.99717 114.388 5.5722 114.671 7.05404 114.268C8.5141 113.843 9.84341 113.277 9.93058 112.1C10.0177 110.618 10.5299 107.611 9.09161 106.565C8.23083 105.922 5.84461 107.426 5.57221 106.434C5.22355 105.17 3.95963 103.841 5.92089 103.427C7.87126 103.002 7.95843 103.558 8.64487 102.937C9.3531 102.316 9.35308 99.7767 9.20054 99.0685C9.048 98.3821 8.57947 96.3445 8.07826 96.192C7.58795 96.0395 6.04074 96.1266 5.84461 95.6363C5.62669 95.146 4.94027 92.9777 4.94027 91.9862C4.94027 90.9946 3.94872 89.5346 5.49594 88.554C7.02136 87.5624 8.37246 87.5624 9.27682 87.29C10.1812 87.0067 10.6061 87.0503 11.1618 85.8518C11.2708 85.6338 11.3797 85.405 11.4887 85.1653C11.5976 84.9038 11.7066 84.6532 11.8156 84.3917C12.1316 83.6181 12.3713 83.0406 12.3713 83.0406C12.3713 83.0406 13.7659 80.7198 13.2974 78.4861C12.8071 76.2525 11.8156 74.2803 11.9681 73.158C12.0989 72.0466 12.0335 70.6411 13.2974 71.3384C14.5395 72.0467 15.1279 73.267 15.749 71.1423C16.3701 69.0176 16.2393 67.9607 16.174 67.3396C16.1086 66.7185 15.6836 65.5962 16.0214 64.3323C16.3701 63.0684 16.7296 61.1071 17.5686 61.1071C18.4076 61.1071 20.1618 62.6326 20.8592 61.1071C21.5674 59.5599 20.8592 58.5902 21.9706 57.3262C23.0819 56.0623 24.1388 56.7052 24.4221 55.4412C24.7054 54.1773 24.3568 52.9897 24.3568 52.3468C24.3568 51.7039 24.4221 50.5163 25.065 50.3965C25.6861 50.2439 26.3071 50.865 27.2333 50.9521C28.1377 51.0175 29.8265 49.6882 29.8265 49.6882C29.8265 49.6882 30.1316 48.4243 30.8181 49.6882C31.5045 50.9521 32.703 51.3662 33.6946 49.9715C34.6861 48.5768 34.8713 47.4654 36.5711 46.5393C38.2491 45.6131 38.4561 43.6628 39.1643 43.4666C39.8507 43.2487 40.6244 43.8044 41.1147 42.9763C41.5832 42.1374 41.7358 40.4594 41.6704 39.6858C41.5832 38.9121 40.8314 38.2257 42.0735 37.6482C43.3375 37.0925 44.7321 37.2233 45.0808 36.3189C45.4295 35.4146 44.7321 33.5949 44.7321 33.0392C44.7321 32.4835 43.8931 30.5877 45.789 30.653C47.674 30.7184 51.1825 30.7184 51.3895 29.8141C51.5856 28.9097 50.8992 28.4848 51.3024 27.7112C51.7273 26.9593 52.5663 25.9678 52.3484 25.4775C52.1305 25.0089 50.8229 23.9521 49.8968 23.7341C48.9924 23.538 46.737 23.1785 46.53 22.6772C46.3338 22.2087 45.9089 18.0574 44.7866 18.4932C43.6752 18.8964 42.8362 20.1058 42.335 19.7571C41.8665 19.4084 41.0929 18.4932 40.8096 18.4714C40.5263 18.4278 38.3036 19.5501 38.3036 19.5501C38.3036 19.5501 38.6522 20.3891 37.2466 19.6373C35.852 18.8637 35.3616 17.0985 35.5687 16.4121C35.7866 15.7256 37.2466 15.7257 37.8023 14.3746C38.358 13.0453 39.4803 13.4702 38.576 11.8576C37.6498 10.245 36.6256 8.29462 36.6256 7.65176C36.6256 7.0089 38.4561 6.03917 38.7285 6.25709C39.0118 6.45321 39.6546 7.52102 39.72 8.20747C39.7854 8.89391 39.5021 9.88541 40.4936 10.0924C41.4851 10.2886 42.6619 9.78736 43.0868 9.44958C43.5009 9.10091 42.8036 8.39268 44.4161 8.39268C46.0287 8.39268 46.737 8.65419 47.1401 9.36243C47.5651 10.0707 49.8641 10.3322 50.4307 10.2668C50.9864 10.2014 52.2612 8.87211 52.8169 9.09003C53.3726 9.30795 51.1389 10.5501 54.9852 10.7026C58.8532 10.8334 61.2939 9.59124 61.2939 9.59124C61.2939 9.59124 62.7104 10.1469 64.214 9.03553C65.6959 7.92415 68.1693 5.75588 68.1693 5.75588C68.1693 5.75588 68.8339 5.40719 69.455 5.28734C69.869 5.20017 70.2286 5.1784 70.4029 5.41811C70.7516 5.86485 71.6668 7.20501 72.2879 7.80429C72.4187 7.93504 72.5276 8.02223 72.6366 8.06581C73.1922 8.34911 76.4174 9.32972 77.6814 8.28371C78.9453 7.2377 79.7843 7.0198 80.34 6.11544C80.8957 5.21108 81.4514 4.28493 81.7346 2.95563C81.9744 1.84424 81.6257 0.874512 82.0942 0.100902C83.2056 -0.117016 84.633 -0.0516555 86.0059 1.00525C88.9478 3.23891 87.6838 5.34183 89.5034 7.17234C89.6124 7.2813 89.7432 7.39026 89.8521 7.47743C90.0047 7.60818 90.179 7.69533 90.3206 7.7716C90.5168 7.85877 90.702 7.94595 90.8981 7.98954C91.4756 8.16387 92.0531 8.18565 92.6197 8.28371C92.7068 8.28371 92.794 8.32729 92.8812 8.34909C92.9683 8.37088 93.0555 8.39269 93.1427 8.43627C93.208 8.43627 93.2952 8.47984 93.3606 8.52343C93.4696 8.56701 93.5567 8.61061 93.6657 8.67598C93.7311 8.71957 93.7964 8.74137 93.84 8.78495C93.8618 8.78495 93.8836 8.82851 93.9054 8.82851C93.9926 8.89388 94.0797 8.95929 94.1451 9.02466L94.2976 9.17719C94.2976 9.17719 94.3848 9.28616 94.4284 9.32975C94.5591 9.50408 94.6899 9.7111 94.8097 9.9726C96.0737 12.6312 94.5482 14.4617 95.8013 15.3007C97.0434 16.1397 99.7347 16.2922 100.29 15.3007C100.846 14.3092 103.548 14.1457 103.254 15.9871C102.96 17.8394 101.838 18.2426 101.413 19.7898C100.988 21.337 102.404 23.2874 102.404 23.2874C102.404 23.2874 103.091 22.7317 103.951 24.1482C104.79 25.5428 103.799 27.6458 103.951 28.8879C104.104 30.1518 105.771 33.2245 106.185 33.5078C106.588 33.7911 109.127 33.6603 109.683 33.5078C110.238 33.377 113.049 33.1264 113.049 35.055L112.919 35.0986L112.984 35.0114Z" fill="url(#paint0_linear_0_1)" stroke="#193E87" stroke-width="2" mask="url(#path-1-inside-1_0_1)"/>
</g>
</g>
<defs>
<linearGradient id="paint0_linear_0_1" x1="56.5247" y1="2.47078e-06" x2="56.5247" y2="188.709" gradientUnits="userSpaceOnUse">
<stop stop-color="white"/>
<stop offset="0.43" stop-color="#F7FEFF" stop-opacity="0.9484"/>
<stop offset="1" stop-color="#EDFCFF" stop-opacity="0.88"/>
</linearGradient>
</defs>
</svg>
