<svg width="14" height="15" viewBox="0 0 14 15" fill="none" xmlns="http://www.w3.org/2000/svg">
<g id="&#240;&#159;&#151;&#130; ref &#194;&#183; India state vectors (source)">
<path id="Delhi" d="M13.3613 5.44629L13.3613 5.44824C13.3584 5.44644 13.3562 5.44319 13.3535 5.44141C13.3562 5.44299 13.3587 5.44474 13.3613 5.44629ZM3.9707 3.34668C3.95988 2.82719 3.96762 2.3026 4.06738 1.83984C4.16636 1.38096 4.34428 1.03435 4.63477 0.811524L4.63574 0.8125C4.87831 0.626784 5.19757 0.531788 5.59082 0.506836C5.85611 0.490022 6.13699 0.507328 6.4248 0.539063L6.4248 0.610352L6.93457 0.610352C7.87343 0.72973 8.77422 0.876489 9.7334 1.00879L9.75098 1.01074C10.056 1.04203 10.386 1.07397 10.7207 1.08984C10.776 1.28117 10.8414 1.48246 10.9238 1.70215L10.9277 1.71191C11.361 2.7979 11.8475 3.65737 12.2783 4.27637C12.4935 4.5855 12.6975 4.83832 12.877 5.03125C13.0206 5.18569 13.1709 5.323 13.3125 5.41602C13.3282 5.44496 13.3514 5.49615 13.375 5.57422C13.4235 5.73448 13.4633 5.95827 13.4824 6.2168C13.5216 6.74634 13.4655 7.3198 13.2988 7.7002L13.2959 7.70703C13.0608 8.26861 13.1006 9.00606 13.2607 9.67481C13.1461 9.86422 13.0544 10.0614 12.9775 10.292L12.9746 10.2988L12.9727 10.3066C12.7672 10.9916 12.7986 11.7353 12.791 12.3271C12.7847 12.8171 12.7531 13.23 12.624 13.5898C12.3257 13.5022 12.0313 13.3144 11.8125 13.0635L11.25 12.418L10.9648 13.2256C10.8932 13.4278 10.7251 13.6052 10.4687 13.7334C10.2119 13.8618 9.89772 13.9218 9.60449 13.9053C9.36819 13.8849 9.21461 13.8493 9.09961 13.7803L9.09766 13.7793L9.02344 13.7275C8.86002 13.596 8.75373 13.3748 8.64062 12.999C8.58474 12.8133 8.51487 12.5478 8.43945 12.3252C8.37932 12.1477 8.30394 11.9581 8.19824 11.7754L8.08203 11.5957L8.0791 11.5918L7.93848 11.4248C7.59097 11.0617 7.10888 10.8772 6.64355 10.8496C6.11158 10.8182 5.5348 10.9879 5.12695 11.4111L5.11719 11.4209C5.04875 11.4962 4.98624 11.5753 4.93652 11.6387C4.88317 11.7067 4.84276 11.7584 4.80176 11.8047C4.72013 11.8968 4.68051 11.9139 4.66309 11.9189C4.65683 11.9187 4.64859 11.9188 4.63769 11.918C4.60494 11.9155 4.5865 11.9139 4.53418 11.9092C4.50222 11.9063 4.46303 11.9037 4.41992 11.9023C3.85842 11.8375 3.30744 11.7729 2.75586 11.708L2.75293 11.708C2.00203 11.6234 1.38344 11.5256 0.946289 11.1924L0.861328 11.1221L0.853515 11.1162L0.785156 11.0498C0.631611 10.885 0.525643 10.6464 0.503906 10.4072C0.479199 10.1343 0.566527 9.95338 0.690429 9.86426C0.791974 9.79139 0.911357 9.75524 1.15234 9.66895C1.3576 9.59544 1.66406 9.47929 1.89844 9.20898L1.89746 9.20801C2.1182 8.95768 2.20372 8.66816 2.23437 8.40918C2.26401 8.15881 2.24696 7.89774 2.23535 7.69531C2.22256 7.4721 2.21463 7.30716 2.2334 7.16699C2.25066 7.03807 2.28605 6.97244 2.32812 6.92871L2.33789 6.91797L2.34668 6.90723C2.36043 6.89119 2.39165 6.86432 2.46582 6.81934C2.50234 6.79721 2.54124 6.77541 2.58984 6.74805C2.63526 6.72248 2.68978 6.6912 2.74414 6.65723L2.75293 6.65137C3.33144 6.27283 3.63225 5.69683 3.78906 5.11328C3.94436 4.53516 3.97069 3.90579 3.9707 3.35742L3.9707 3.34668Z" fill="url(#paint0_linear_0_1)" stroke="#193E87"/>
</g>
<defs>
<linearGradient id="paint0_linear_0_1" x1="6.99736" y1="3.05864e-07" x2="6.99736" y2="14.409" gradientUnits="userSpaceOnUse">
<stop stop-color="white"/>
<stop offset="0.43" stop-color="#F7FEFF" stop-opacity="0.9484"/>
<stop offset="1" stop-color="#EDFCFF" stop-opacity="0.88"/>
</linearGradient>
</defs>
</svg>
